# xmcd CD database file
#
# Track frame offsets:
#	183
#	19300
#	50640
#	70920
#	99680
#	122290
#	140028
#	161573
#	174848
#	194710
#
# Disc length: 2785 seconds
#
# Revision: 0
# Processed by: cddbd v1.5PL3 Copyright (c) Steve Scherf et al.
# Submitted via: CDex 1.51
#
DISCID=8e0adf0a
DTITLE=The Green String Quartet - Bluegreene
DYEAR=1995
DGENRE=Jazz
TTITLE0=Cool
TTITLE1=Fantasy on Londonderry Air
TTITLE2=Children's Song
TTITLE3=I'm Blue: Tribute to Billy Holiday
TTITLE4=Caprice En Groove
TTITLE5=Blue Deco
TTITLE6=Blue Set for Jazz String Quartet - Mumbo Jumbo
TTITLE7=Blue Set for Jazz String Quartet - Twelve Bars
TTITLE8=Blue Set for Jazz String Quartet - Tucumcari
TTITLE9=Blue Set for Jazz String Quartet - Over and Out
EXTD=YEAR: 1995
EXTT0=
EXTT1=
EXTT2=
EXTT3=
EXTT4=
EXTT5=
EXTT6=
EXTT7=
EXTT8=
EXTT9=
PLAYORDER=
